<?xml version="1.0" encoding="utf-8"?>
<!-- Generator: Adobe Illustrator 26.5.1, SVG Export Plug-In . SVG Version: 6.00 Build 0)  -->
<svg version="1.1" id="Layer_1" xmlns="http://www.w3.org/2000/svg" xmlns:xlink="http://www.w3.org/1999/xlink" x="0px" y="0px"
	 viewBox="0 0 3.2 1.1" style="enable-background:new 0 0 3.2 1.1;" xml:space="preserve">
<style type="text/css">
	.st0{fill:#231F20;}
</style>
<polygon class="st0" points="0.4,0.3 0.5,0.5 0.7,0.5 0.6,0.7 0.6,0.9 0.4,0.8 0.2,0.9 0.3,0.7 0.1,0.5 0.3,0.5 "/>
<polygon class="st0" points="1,0.3 1.1,0.5 1.3,0.5 1.2,0.7 1.2,0.9 1,0.8 0.8,0.9 0.9,0.7 0.7,0.5 0.9,0.5 "/>
<polygon class="st0" points="1.6,0.3 1.7,0.5 1.9,0.5 1.8,0.7 1.8,0.9 1.6,0.8 1.5,0.9 1.5,0.7 1.4,0.5 1.5,0.5 "/>
<polygon class="st0" points="2.2,0.3 2.3,0.5 2.5,0.5 2.4,0.7 2.4,0.9 2.2,0.8 2.1,0.9 2.1,0.7 2,0.5 2.1,0.5 "/>
<polygon class="st0" points="2.8,0.3 2.9,0.5 3.1,0.5 3,0.7 3,0.9 2.8,0.8 2.7,0.9 2.7,0.7 2.6,0.5 2.7,0.5 "/>
</svg>
